<svg xmlns="http://www.w3.org/2000/svg" xmlns:xlink="http://www.w3.org/1999/xlink" width="800" zoomAndPan="magnify" viewBox="0 0 600 374.999991" height="500" preserveAspectRatio="xMidYMid meet" version="1.0"><rect x="-60" width="720" fill="#ffffff" y="-37.499999" height="449.999989" fill-opacity="1"/><rect x="-60" width="720" fill="#ffffff" y="-37.499999" height="449.999989" fill-opacity="1"/><path fill="#5a3114" d="M -0.046875 -5.9375 L -0.046875 381.128906 L 599.851562 381.128906 L 599.851562 -5.9375 L -0.046875 -5.9375 " fill-opacity="1" fill-rule="nonzero"/><path fill="#4b2111" d="M 583.042969 367.667969 L 16.761719 367.667969 C 13.558594 367.667969 10.957031 365.066406 10.957031 361.859375 L 10.957031 13.332031 C 10.957031 10.125 13.558594 7.523438 16.761719 7.523438 L 583.042969 7.523438 C 586.253906 7.523438 588.847656 10.125 588.847656 13.332031 L 588.847656 361.859375 C 588.847656 365.066406 586.253906 367.667969 583.042969 367.667969 M 16.761719 361.859375 L 583.042969 361.859375 L 583.042969 13.332031 L 16.761719 13.332031 L 16.761719 361.859375 " fill-opacity="1" fill-rule="nonzero"/><path fill="#926614" d="M 583.042969 361.859375 L 16.761719 361.859375 L 16.761719 13.332031 L 583.042969 13.332031 L 583.042969 361.859375 M 469.273438 347.1875 L 568.644531 347.1875 L 568.644531 28.003906 L 31.167969 28.003906 L 31.167969 347.1875 L 469.273438 347.1875 " fill-opacity="1" fill-rule="nonzero"/><path fill="#e5e6e3" d="M 31.167969 347.1875 L 568.644531 347.1875 L 568.644531 28.003906 L 31.167969 28.003906 Z M 31.167969 347.1875 " fill-opacity="1" fill-rule="nonzero"/><path fill="#dbdcd9" d="M 568.644531 347.1875 L 469.273438 347.1875 L 457.308594 326.292969 L 482.546875 326.292969 L 482.546875 316.054688 L 451.449219 316.054688 L 444.476562 303.878906 C 445.113281 303.183594 445.746094 302.480469 446.359375 301.753906 C 447.054688 301.933594 447.757812 302.019531 448.46875 302.019531 C 457.484375 302.019531 467.390625 288.445312 462.46875 280.804688 C 462.277344 280.519531 462.082031 280.246094 461.878906 279.980469 C 477.5 279.882812 493.117188 279.664062 508.734375 279.640625 C 510.828125 279.640625 511.644531 277.015625 509.105469 277.015625 C 509.105469 277.015625 509.097656 277.015625 509.097656 277.015625 C 492.414062 277.039062 475.738281 277.296875 459.054688 277.378906 C 455.382812 274.921875 450.222656 274.105469 444.710938 274.105469 C 439.242188 274.105469 433.421875 274.90625 428.339844 275.6875 L 425.027344 269.902344 C 432.996094 260.691406 440.703125 251.402344 448.378906 242.101562 L 453.179688 242.101562 L 453.179688 236.277344 C 454.730469 234.394531 456.28125 232.519531 457.832031 230.636719 L 453.179688 236.210938 L 453.179688 236.144531 C 488.230469 193.058594 513.210938 148.789062 537.96875 103.898438 C 549.003906 83.898438 560.695312 48.382812 568.644531 28.003906 L 568.644531 347.1875 M 375.636719 347.1875 L 342.019531 347.1875 L 341.898438 346.96875 C 350.171875 341.183594 357.960938 335.246094 365.335938 329.199219 L 375.636719 347.1875 M 442.910156 301.140625 L 430.75 279.898438 C 436.882812 279.988281 443.015625 280.027344 449.148438 280.027344 C 451.683594 280.027344 454.207031 280.019531 456.734375 280.003906 C 457.882812 280.820312 458.800781 281.894531 459.328125 283.332031 C 461.015625 287.898438 455.441406 299.484375 449.566406 299.484375 C 448.824219 299.484375 448.082031 299.296875 447.34375 298.894531 C 447.015625 298.714844 446.625 298.621094 446.222656 298.621094 C 445.503906 298.621094 444.769531 298.902344 444.339844 299.433594 C 443.863281 300.023438 443.386719 300.589844 442.910156 301.140625 M 447.457031 243.0625 L 448.257812 242.101562 L 448.265625 242.101562 C 447.992188 242.425781 447.726562 242.746094 447.457031 243.0625 " fill-opacity="1" fill-rule="nonzero"/><path fill="#b0b2ae" d="M 500.511719 54.609375 L 301.765625 54.609375 L 295.898438 44.367188 L 500.511719 44.367188 L 500.511719 54.609375 M 208.121094 54.609375 L 174.515625 54.609375 L 168.644531 44.367188 L 202.261719 44.367188 L 208.121094 54.609375 " fill-opacity="1" fill-rule="nonzero"/><path fill="#b0b2ae" d="M 407.59375 72.539062 L 312.027344 72.539062 L 306.160156 62.292969 L 407.59375 62.292969 L 407.59375 72.539062 M 218.390625 72.539062 L 196.113281 72.539062 L 196.113281 62.292969 L 212.523438 62.292969 L 218.390625 72.539062 " fill-opacity="1" fill-rule="nonzero"/><path fill="#b0b2ae" d="M 453.179688 132.328125 L 346.257812 132.328125 L 335.269531 113.125 L 453.179688 113.125 L 453.179688 132.328125 M 252.617188 132.328125 L 219.011719 132.328125 L 208.015625 113.125 L 241.628906 113.125 L 252.617188 132.328125 " fill-opacity="1" fill-rule="nonzero"/><path fill="#b0b2ae" d="M 453.179688 180.316406 L 373.730469 180.316406 L 362.742188 161.117188 L 453.179688 161.117188 L 453.179688 180.316406 M 280.09375 180.316406 L 246.484375 180.316406 L 235.488281 161.117188 L 269.105469 161.117188 L 280.09375 180.316406 " fill-opacity="1" fill-rule="nonzero"/><path fill="#b0b2ae" d="M 448.378906 242.101562 L 448.265625 242.101562 C 448.855469 241.398438 449.445312 240.6875 450.027344 239.984375 L 453.179688 236.210938 L 453.179688 236.277344 C 451.578125 238.214844 449.972656 240.164062 448.378906 242.101562 M 448.257812 242.101562 L 409.105469 242.101562 L 398.117188 222.910156 L 453.179688 222.910156 L 453.179688 236.144531 C 452.136719 237.429688 451.09375 238.707031 450.027344 239.984375 L 448.257812 242.101562 M 315.46875 242.101562 L 281.863281 242.101562 L 270.867188 222.910156 L 304.480469 222.910156 L 315.46875 242.101562 M 153.75 242.101562 L 146.625 242.101562 L 146.625 229.667969 L 153.75 242.101562 " fill-opacity="1" fill-rule="nonzero"/><path fill="#a8aaa7" d="M 453.179688 242.101562 L 448.378906 242.101562 C 449.972656 240.164062 451.578125 238.214844 453.179688 236.277344 L 453.179688 242.101562 M 448.265625 242.101562 L 448.257812 242.101562 L 450.027344 239.984375 C 449.445312 240.6875 448.855469 241.398438 448.265625 242.101562 M 450.027344 239.984375 C 451.09375 238.707031 452.136719 237.429688 453.179688 236.144531 L 453.179688 236.210938 L 450.027344 239.984375 " fill-opacity="1" fill-rule="nonzero"/><path fill="#b0b2ae" d="M 201.949219 326.292969 L 146.625 326.292969 L 146.625 316.054688 L 196.082031 316.054688 L 201.949219 326.292969 " fill-opacity="1" fill-rule="nonzero"/><path fill="#b0b2ae" d="M 363.671875 326.292969 L 344.078125 326.292969 L 344.078125 316.054688 L 357.8125 316.054688 L 363.671875 326.292969 " fill-opacity="1" fill-rule="nonzero"/><path fill="#a8aaa7" d="M 482.546875 326.292969 L 457.308594 326.292969 L 451.449219 316.054688 L 482.546875 316.054688 L 482.546875 326.292969 " fill-opacity="1" fill-rule="nonzero"/><path fill="#f03a3b" d="M 80.984375 101.480469 C 92.734375 103.195312 104.628906 104.859375 116.675781 106.46875 C 111.851562 149 147.796875 185.355469 193.511719 178.773438 C 186.417969 185.746094 177.183594 191.714844 166.429688 195.859375 C 174.476562 203.890625 185.398438 210.847656 199.335938 215.300781 C 125.410156 226.441406 71.816406 168.601562 80.984375 101.480469 " fill-opacity="1" fill-rule="nonzero"/><path fill="#f03a3b" d="M 80.984375 101.480469 C 92.734375 103.195312 104.628906 104.859375 116.675781 106.46875 C 111.851562 149 147.796875 185.355469 193.511719 178.773438 C 186.417969 185.746094 177.183594 191.714844 166.429688 195.859375 C 174.476562 203.890625 185.398438 210.847656 199.335938 215.300781 C 125.410156 226.441406 71.816406 168.601562 80.984375 101.480469 " fill-opacity="1" fill-rule="nonzero"/><path fill="#c62f2f" d="M 132.496094 205 C 118.582031 197.703125 106.90625 187.304688 98.125 174.773438 C 99.171875 168.097656 101.195312 161.5625 104.125 155.429688 L 132.496094 205 " fill-opacity="1" fill-rule="nonzero"/><path fill="#f03a3b" d="M 113.417969 93.125 C 119.5 103.945312 125.640625 114.742188 131.839844 125.511719 C 95.359375 146.058594 84.945312 197.75 114.296875 229.035156 C 104.230469 227.71875 94.125 224.171875 84.992188 218.273438 C 82.15625 229.480469 81.460938 242.269531 84.273438 255.730469 C 40.117188 206.144531 58.789062 124.417969 113.417969 93.125 " fill-opacity="1" fill-rule="nonzero"/><path fill="#f03a3b" d="M 113.417969 93.125 C 119.5 103.945312 125.640625 114.742188 131.839844 125.511719 C 95.359375 146.058594 84.945312 197.75 114.296875 229.035156 C 104.230469 227.71875 94.125 224.171875 84.992188 218.273438 C 82.15625 229.480469 81.460938 242.269531 84.273438 255.730469 C 40.117188 206.144531 58.789062 124.417969 113.417969 93.125 " fill-opacity="1" fill-rule="nonzero"/><path fill="#bebdbc" d="M 78.765625 249.074219 C 75.523438 244.644531 72.710938 240.015625 70.320312 235.226562 C 72.710938 239.96875 75.515625 244.558594 78.757812 248.945312 C 78.757812 248.992188 78.765625 249.035156 78.765625 249.074219 " fill-opacity="1" fill-rule="nonzero"/><path fill="#c62f2f" d="M 78.757812 248.945312 C 75.515625 244.558594 72.710938 239.96875 70.320312 235.226562 C 55.792969 206.148438 56.785156 171.429688 69.84375 142.242188 C 70.976562 142.679688 72.035156 143.1875 72.9375 143.851562 C 76.984375 146.824219 79.207031 153.707031 83.878906 155.511719 C 76.867188 163.371094 71.832031 173.320312 69.640625 184.445312 C 65.554688 205.410156 73.140625 225.472656 78.417969 245.21875 C 78.570312 246.449219 78.683594 247.691406 78.757812 248.945312 " fill-opacity="1" fill-rule="nonzero"/><path fill="#fcca12" d="M 82.3125 54.621094 C 85.019531 53.671875 88.128906 54.742188 91.199219 55.824219 C 93.4375 56.621094 95.660156 57.414062 97.695312 57.40625 C 102.703125 57.390625 108.125 53.011719 112.910156 54.59375 C 117.742188 56.1875 120.421875 63.238281 124.699219 66.261719 C 128.949219 69.25 136.203125 69.128906 139.5625 73.332031 C 142.804688 77.386719 141.058594 84.433594 143.039062 89.492188 C 145.019531 94.550781 151.320312 98.765625 151.667969 103.839844 C 152.023438 109.101562 146.1875 113.585938 144.832031 118.546875 C 143.464844 123.554688 146.179688 130.601562 143.242188 134.929688 C 140.324219 139.214844 132.746094 139.414062 128.503906 142.65625 C 124.414062 145.78125 122.28125 153.039062 117.101562 154.871094 C 114.089844 155.929688 110.75 154.90625 107.472656 153.894531 C 105.105469 153.152344 102.769531 152.417969 100.621094 152.472656 C 95.296875 152.59375 89.242188 157.191406 84.308594 155.664062 C 79.34375 154.121094 77.105469 146.914062 72.9375 143.851562 C 68.816406 140.820312 61.464844 140.96875 58.492188 136.636719 C 55.632812 132.449219 57.949219 125.195312 56.367188 120 C 54.785156 114.796875 49.0625 110.378906 49.101562 105.171875 C 49.121094 99.777344 54.871094 95.316406 56.34375 90.316406 C 57.835938 85.265625 55.566406 78.066406 58.363281 73.785156 C 61.117188 69.558594 68.074219 69.574219 72 66.449219 C 75.78125 63.433594 77.617188 56.273438 82.3125 54.621094 " fill-opacity="1" fill-rule="nonzero"/><path fill="#fddf2e" d="M 88.636719 147.019531 C 88.113281 147.019531 87.609375 146.953125 87.132812 146.800781 C 85.066406 146.15625 83.554688 144.019531 81.957031 141.757812 C 80.703125 139.988281 79.417969 138.148438 77.761719 136.941406 C 76.136719 135.753906 74.054688 135.101562 72.042969 134.480469 C 69.433594 133.664062 66.984375 132.894531 65.722656 131.085938 C 64.617188 129.5 64.566406 126.796875 64.585938 123.96875 C 64.601562 121.722656 64.617188 119.394531 63.976562 117.316406 C 63.339844 115.242188 62.023438 113.382812 60.769531 111.582031 C 59.1875 109.320312 57.757812 107.105469 57.75 105.132812 C 57.75 102.871094 59.242188 100.714844 60.804688 98.433594 C 62.007812 96.675781 63.25 94.863281 63.832031 92.894531 C 64.414062 90.898438 64.367188 88.632812 64.316406 86.4375 C 64.316406 86.25 64.308594 86.066406 64.308594 85.886719 L 78.003906 109.804688 C 73.035156 109.085938 68.226562 107.734375 63.671875 105.804688 C 63.550781 106.265625 63.484375 106.742188 63.484375 107.234375 C 63.5 110.902344 67.613281 114.011719 68.769531 117.671875 C 69.925781 121.339844 68.332031 126.449219 70.394531 129.398438 C 72.542969 132.453125 77.738281 132.347656 80.664062 134.488281 C 83.628906 136.652344 85.25 141.734375 88.757812 142.832031 C 89.25 142.988281 89.761719 143.058594 90.292969 143.058594 C 92.152344 143.058594 94.164062 142.21875 96.160156 141.523438 L 97.839844 144.457031 C 96.628906 144.757812 95.417969 145.191406 94.238281 145.613281 C 92.242188 146.332031 90.335938 147.019531 88.636719 147.019531 " fill-opacity="1" fill-rule="nonzero"/><path fill="#a3820b" d="M 88.582031 149.425781 C 87.851562 149.425781 87.117188 149.335938 86.398438 149.105469 C 83.59375 148.230469 81.792969 145.675781 80.054688 143.195312 C 78.859375 141.5 77.738281 139.894531 76.394531 138.914062 C 75.078125 137.945312 73.261719 137.386719 71.339844 136.789062 C 68.480469 135.902344 65.546875 134.980469 63.847656 132.523438 C 62.371094 130.398438 62.257812 127.0625 62.289062 123.984375 C 62.3125 121.921875 62.328125 119.789062 61.804688 118.085938 C 61.28125 116.378906 60.089844 114.675781 58.9375 113.019531 C 57.214844 110.546875 55.496094 107.800781 55.496094 105.140625 C 55.496094 102.09375 57.28125 99.503906 58.992188 97.011719 C 60.140625 95.332031 61.222656 93.757812 61.691406 92.164062 C 62.167969 90.535156 62.121094 88.554688 62.085938 86.460938 C 62.054688 85.007812 62.015625 83.542969 62.160156 82.140625 L 63.179688 83.917969 C 63.121094 86.832031 63.5 90 62.757812 92.527344 C 61.515625 96.777344 56.625 100.5625 56.625 105.140625 C 56.625 109.546875 61.523438 113.292969 62.894531 117.699219 C 64.261719 122.109375 62.328125 128.257812 64.785156 131.804688 C 67.332031 135.480469 73.5625 135.351562 77.082031 137.929688 C 80.628906 140.523438 82.546875 146.632812 86.769531 147.957031 C 87.367188 148.140625 87.976562 148.222656 88.605469 148.222656 C 91.722656 148.222656 95.183594 146.277344 98.460938 145.539062 L 99.078125 146.632812 C 97.785156 146.875 96.417969 147.367188 94.996094 147.882812 C 92.878906 148.644531 90.699219 149.425781 88.582031 149.425781 " fill-opacity="1" fill-rule="nonzero"/><path fill="#a48f1d" d="M 88.605469 148.222656 C 87.976562 148.222656 87.367188 148.140625 86.769531 147.957031 C 82.546875 146.632812 80.628906 140.523438 77.082031 137.929688 C 73.5625 135.351562 67.332031 135.480469 64.785156 131.804688 C 62.328125 128.257812 64.261719 122.109375 62.894531 117.699219 C 61.523438 113.292969 56.625 109.546875 56.625 105.140625 C 56.625 100.5625 61.515625 96.777344 62.757812 92.527344 C 63.5 90 63.121094 86.832031 63.179688 83.917969 L 64.308594 85.886719 C 64.308594 86.066406 64.316406 86.25 64.316406 86.4375 C 64.367188 88.632812 64.414062 90.898438 63.832031 92.894531 C 63.25 94.863281 62.007812 96.675781 60.804688 98.433594 C 59.242188 100.714844 57.75 102.871094 57.75 105.132812 C 57.757812 107.105469 59.1875 109.320312 60.769531 111.582031 C 62.023438 113.382812 63.339844 115.242188 63.976562 117.316406 C 64.617188 119.394531 64.601562 121.722656 64.585938 123.96875 C 64.566406 126.796875 64.617188 129.5 65.722656 131.085938 C 66.984375 132.894531 69.433594 133.664062 72.042969 134.480469 C 74.054688 135.101562 76.136719 135.753906 77.761719 136.941406 C 79.417969 138.148438 80.703125 139.988281 81.957031 141.757812 C 83.554688 144.019531 85.066406 146.15625 87.132812 146.800781 C 87.609375 146.953125 88.113281 147.019531 88.636719 147.019531 C 90.335938 147.019531 92.242188 146.332031 94.238281 145.613281 C 95.417969 145.191406 96.628906 144.757812 97.839844 144.457031 L 98.460938 145.539062 C 95.183594 146.277344 91.722656 148.222656 88.605469 148.222656 " fill-opacity="1" fill-rule="nonzero"/><path fill="#feec6a" d="M 90.292969 143.058594 C 89.761719 143.058594 89.25 142.988281 88.757812 142.832031 C 85.25 141.734375 83.628906 136.652344 80.664062 134.488281 C 77.738281 132.347656 72.542969 132.453125 70.394531 129.398438 C 68.332031 126.449219 69.925781 121.339844 68.769531 117.671875 C 67.613281 114.011719 63.5 110.902344 63.484375 107.234375 C 63.484375 106.742188 63.550781 106.265625 63.671875 105.804688 C 68.226562 107.734375 73.035156 109.085938 78.003906 109.804688 L 96.160156 141.523438 C 94.164062 142.21875 92.152344 143.058594 90.292969 143.058594 " fill-opacity="1" fill-rule="nonzero"/><path fill="#f1f2f1" d="M 341.589844 347.1875 L 213.90625 347.1875 L 201.949219 326.292969 L 272.105469 326.292969 L 272.105469 316.054688 L 196.082031 316.054688 L 190.328125 305.996094 C 191.507812 304.882812 192.648438 303.710938 193.777344 302.539062 C 193.390625 303.546875 193.011719 304.558594 192.605469 305.582031 C 192.382812 306.125 192.753906 306.304688 193.320312 306.304688 C 194.253906 306.304688 195.726562 305.808594 195.96875 305.632812 C 198.125 304.058594 200.1875 302.410156 202.207031 300.703125 C 202.183594 300.832031 202.171875 300.953125 202.148438 301.082031 C 202.0625 301.6875 202.511719 301.890625 203.109375 301.890625 C 203.992188 301.890625 205.203125 301.4375 205.511719 301.132812 C 205.738281 300.96875 205.964844 300.800781 206.191406 300.632812 C 206.546875 303.273438 207.054688 305.882812 207.238281 308.542969 C 207.273438 308.984375 207.613281 309.132812 208.082031 309.132812 C 208.984375 309.132812 210.316406 308.550781 210.601562 308.339844 C 214.253906 305.59375 215.289062 304.847656 217.765625 304.847656 C 218.640625 304.847656 219.691406 304.9375 221.105469 305.074219 C 221.484375 305.113281 221.878906 305.125 222.261719 305.125 C 225.984375 305.125 230.128906 303.605469 233.242188 301.980469 C 243.566406 296.589844 251.878906 288.324219 259.773438 279.867188 C 273.398438 278.621094 287.058594 276.335938 300.625 274.882812 L 341.898438 346.96875 C 341.792969 347.042969 341.695312 347.113281 341.589844 347.1875 " fill-opacity="1" fill-rule="nonzero"/><path fill="#ececeb" d="M 342.019531 347.1875 L 341.589844 347.1875 C 341.695312 347.113281 341.792969 347.042969 341.898438 346.96875 L 342.019531 347.1875 " fill-opacity="1" fill-rule="nonzero"/><path fill="#d4d5d2" d="M 272.105469 326.292969 L 201.949219 326.292969 L 196.082031 316.054688 L 272.105469 316.054688 L 272.105469 326.292969 " fill-opacity="1" fill-rule="nonzero"/><path fill="#f1f2f1" d="M 210.785156 305.519531 C 210.464844 302.886719 209.945312 300.285156 209.710938 297.640625 C 209.664062 297.214844 209.234375 297.082031 208.71875 297.082031 C 208.082031 297.082031 207.34375 297.285156 207.101562 297.390625 C 206.917969 297.472656 206.738281 297.558594 206.554688 297.648438 C 206.722656 297.132812 206.925781 296.617188 207.160156 296.097656 C 207.394531 295.566406 206.980469 295.394531 206.367188 295.394531 C 205.4375 295.394531 204.054688 295.800781 203.796875 296.042969 C 201.828125 297.867188 199.839844 299.621094 197.792969 301.316406 C 198.433594 299.636719 199.121094 297.980469 200.03125 296.371094 C 200.445312 295.636719 199.960938 295.394531 199.25 295.394531 C 198.367188 295.394531 197.125 295.765625 196.800781 296.042969 C 194.378906 298.109375 192.164062 300.363281 189.941406 302.636719 C 189.707031 302.878906 189.367188 303.222656 188.964844 303.621094 L 184.835938 296.40625 C 187.324219 290.667969 190.304688 285.09375 191.886719 278.992188 C 192.042969 278.386719 191.523438 278.210938 190.902344 278.210938 C 190.257812 278.210938 189.511719 278.402344 189.285156 278.484375 C 185.277344 279.964844 181.722656 282.378906 178.476562 285.304688 L 153.75 242.101562 L 281.863281 242.101562 L 299.550781 273 C 286.960938 274.363281 274.429688 276.34375 261.828125 277.652344 C 262.359375 277.070312 262.886719 276.496094 263.425781 275.929688 C 263.726562 275.59375 263.941406 275.324219 263.667969 274.90625 C 259.53125 268.652344 251.4375 266.300781 242.613281 266.300781 C 230.90625 266.300781 217.90625 270.4375 211.140625 275.097656 C 210.390625 275.609375 210.085938 276.320312 211.148438 276.632812 C 221.410156 279.65625 231.785156 280.746094 242.199219 280.746094 C 246.796875 280.746094 251.402344 280.535156 256.007812 280.179688 C 247.757812 289.3125 235.347656 302.851562 223.300781 302.851562 C 221.386719 302.851562 219.480469 302.503906 217.605469 301.746094 C 217.339844 301.640625 217.023438 301.585938 216.691406 301.585938 C 215.925781 301.585938 215.070312 301.859375 214.617188 302.351562 C 213.4375 303.597656 212.128906 304.582031 210.785156 305.519531 M 146.625 229.667969 L 132.511719 205.015625 C 146.683594 212.457031 163.15625 216.683594 181.207031 216.683594 C 187.082031 216.683594 193.148438 216.230469 199.335938 215.300781 C 185.398438 210.847656 174.476562 203.890625 166.429688 195.859375 C 176.382812 192.023438 185.035156 186.625 191.894531 180.316406 L 246.484375 180.316406 L 270.867188 222.910156 L 146.625 222.910156 L 146.625 229.667969 M 146.625 169.253906 C 137.632812 163.574219 130.199219 155.824219 124.941406 146.71875 C 126.03125 145.144531 127.167969 143.675781 128.503906 142.65625 C 132.746094 139.414062 140.324219 139.214844 143.242188 134.929688 C 146.179688 130.601562 143.464844 123.554688 144.832031 118.546875 C 145.1875 117.246094 145.84375 115.984375 146.625 114.730469 L 146.625 132.328125 L 219.011719 132.328125 L 235.488281 161.117188 L 146.625 161.117188 L 146.625 169.253906 M 208.015625 113.125 L 147.667969 113.125 C 149.679688 110.128906 151.894531 107.136719 151.667969 103.839844 C 151.320312 98.765625 145.019531 94.550781 143.039062 89.492188 C 141.058594 84.433594 142.804688 77.386719 139.5625 73.332031 C 136.203125 69.128906 128.949219 69.25 124.699219 66.261719 C 120.4375 63.25 117.757812 56.242188 112.964844 54.609375 L 174.515625 54.609375 L 208.015625 113.125 M 57.878906 74.664062 L 31.167969 28.003906 L 159.285156 28.003906 L 168.644531 44.367188 L 103.195312 44.367188 L 103.195312 54.609375 L 107.972656 54.609375 C 104.570312 55.441406 101.039062 57.398438 97.695312 57.40625 C 97.6875 57.40625 97.6875 57.40625 97.679688 57.40625 C 95.644531 57.40625 93.429688 56.621094 91.199219 55.824219 C 88.960938 55.039062 86.707031 54.253906 84.597656 54.253906 C 83.8125 54.253906 83.046875 54.367188 82.3125 54.621094 C 77.617188 56.273438 75.78125 63.433594 72 66.449219 C 68.074219 69.574219 61.117188 69.558594 58.363281 73.785156 C 58.183594 74.066406 58.015625 74.359375 57.878906 74.664062 " fill-opacity="1" fill-rule="nonzero"/><path fill="#d4d5d2" d="M 174.515625 54.609375 L 112.964844 54.609375 C 112.949219 54.601562 112.925781 54.601562 112.910156 54.59375 C 112.179688 54.351562 111.429688 54.246094 110.671875 54.246094 C 109.789062 54.246094 108.886719 54.386719 107.972656 54.609375 L 103.195312 54.609375 L 103.195312 44.367188 L 168.644531 44.367188 L 174.515625 54.609375 " fill-opacity="1" fill-rule="nonzero"/><path fill="#d4d5d2" d="M 219.011719 132.328125 L 146.625 132.328125 L 146.625 114.730469 C 146.957031 114.191406 147.3125 113.664062 147.667969 113.125 L 208.015625 113.125 L 219.011719 132.328125 " fill-opacity="1" fill-rule="nonzero"/><path fill="#d4d5d2" d="M 246.484375 180.316406 L 191.894531 180.316406 C 192.445312 179.8125 192.980469 179.296875 193.511719 178.773438 C 189.882812 179.296875 186.320312 179.546875 182.832031 179.546875 C 169.304688 179.546875 156.941406 175.757812 146.625 169.253906 L 146.625 161.117188 L 235.488281 161.117188 L 246.484375 180.316406 " fill-opacity="1" fill-rule="nonzero"/><path fill="#d4d5d2" d="M 281.863281 242.101562 L 153.75 242.101562 L 146.625 229.667969 L 146.625 222.910156 L 270.867188 222.910156 L 281.863281 242.101562 " fill-opacity="1" fill-rule="nonzero"/><path fill="#f46c63" d="M 181.207031 216.683594 C 163.15625 216.683594 146.683594 212.457031 132.511719 205.015625 L 132.496094 205 C 146.625 212.40625 163.058594 216.609375 181.117188 216.609375 C 184.011719 216.609375 186.945312 216.496094 189.925781 216.277344 C 188.710938 215.695312 187.476562 215.148438 186.234375 214.644531 C 165.25 208.925781 143.003906 204.894531 127.890625 190.441406 C 117.820312 180.800781 112.40625 168.035156 111.609375 155.019531 C 112.527344 155.203125 113.425781 155.316406 114.308594 155.316406 C 115.261719 155.316406 116.195312 155.1875 117.101562 154.871094 C 120.585938 153.636719 122.691406 149.953125 124.941406 146.71875 C 136.226562 166.257812 157.5 179.546875 182.832031 179.546875 C 186.320312 179.546875 189.882812 179.296875 193.511719 178.773438 C 192.980469 179.296875 192.445312 179.8125 191.894531 180.316406 C 185.035156 186.625 176.382812 192.023438 166.429688 195.859375 C 174.476562 203.890625 185.398438 210.847656 199.335938 215.300781 C 193.148438 216.230469 187.082031 216.683594 181.207031 216.683594 " fill-opacity="1" fill-rule="nonzero"/><path fill="#de6259" d="M 181.117188 216.609375 C 163.058594 216.609375 146.625 212.40625 132.496094 205 L 104.125 155.429688 C 104.472656 154.6875 104.84375 153.945312 105.226562 153.214844 C 105.96875 153.417969 106.726562 153.660156 107.472656 153.894531 C 108.851562 154.316406 110.242188 154.75 111.609375 155.019531 C 112.40625 168.035156 117.820312 180.800781 127.890625 190.441406 C 143.003906 204.894531 165.25 208.925781 186.234375 214.644531 C 187.476562 215.148438 188.710938 215.695312 189.925781 216.277344 C 186.945312 216.496094 184.011719 216.609375 181.117188 216.609375 " fill-opacity="1" fill-rule="nonzero"/><path fill="#f46c63" d="M 104.125 155.429688 L 102.503906 152.601562 C 103.390625 152.730469 104.304688 152.949219 105.226562 153.214844 C 104.84375 153.945312 104.472656 154.6875 104.125 155.429688 " fill-opacity="1" fill-rule="nonzero"/><path fill="#fddf2e" d="M 114.308594 155.316406 C 113.425781 155.316406 112.527344 155.203125 111.609375 155.019531 C 110.242188 154.75 108.851562 154.316406 107.472656 153.894531 C 106.726562 153.660156 105.96875 153.417969 105.226562 153.214844 C 104.304688 152.949219 103.390625 152.730469 102.503906 152.601562 L 99.078125 146.632812 C 99.585938 146.535156 100.085938 146.476562 100.570312 146.460938 C 100.613281 146.460938 100.667969 146.460938 100.722656 146.460938 C 102.292969 146.460938 104.0625 147.019531 105.9375 147.609375 C 107.972656 148.246094 110.066406 148.894531 112.132812 148.894531 C 113.054688 148.894531 113.96875 148.773438 114.871094 148.449219 C 117.804688 147.421875 119.605469 144.757812 121.34375 142.1875 C 122.476562 140.5 123.542969 138.90625 124.828125 137.921875 C 126.199219 136.871094 128.082031 136.222656 130.0625 135.539062 C 132.9375 134.550781 135.917969 133.519531 137.550781 131.109375 C 139.207031 128.660156 139.03125 125.519531 138.867188 122.488281 C 138.746094 120.414062 138.632812 118.464844 139.070312 116.855469 C 139.507812 115.265625 140.582031 113.691406 141.714844 112.019531 C 143.394531 109.539062 145.128906 106.96875 144.945312 103.984375 C 144.777344 101.382812 142.804688 98.71875 140.871094 96.320312 C 139.582031 94.726562 138.246094 93.070312 137.601562 91.40625 C 136.960938 89.742188 136.839844 87.65625 136.71875 85.644531 C 136.589844 83.511719 136.453125 81.304688 135.703125 79.390625 C 135.394531 78.617188 135.007812 77.921875 134.53125 77.324219 C 132.648438 74.9375 129.65625 74.035156 126.773438 73.160156 C 124.835938 72.570312 123.015625 72.007812 121.667969 71.046875 C 120.285156 70.082031 119.089844 68.507812 117.828125 66.835938 C 115.980469 64.394531 114.074219 61.867188 111.339844 60.96875 C 110.597656 60.726562 109.847656 60.621094 109.101562 60.621094 C 107.132812 60.621094 105.152344 61.332031 103.214844 62.027344 C 101.378906 62.691406 99.632812 63.3125 98.007812 63.320312 C 98 63.320312 98 63.320312 97.992188 63.320312 C 96.464844 63.320312 94.730469 62.722656 92.910156 62.078125 C 90.898438 61.375 88.847656 60.65625 86.851562 60.65625 C 86.074219 60.65625 85.292969 60.769531 84.539062 61.035156 C 81.84375 61.980469 80.226562 64.582031 78.640625 67.101562 C 77.59375 68.757812 76.613281 70.324219 75.417969 71.273438 C 74.140625 72.289062 72.390625 72.894531 70.539062 73.527344 C 67.863281 74.453125 65.09375 75.40625 63.527344 77.792969 C 62.691406 79.070312 62.320312 80.5625 62.160156 82.140625 L 57.878906 74.664062 C 58.015625 74.359375 58.183594 74.066406 58.363281 73.785156 C 61.117188 69.558594 68.074219 69.574219 72 66.449219 C 75.78125 63.433594 77.617188 56.273438 82.3125 54.621094 C 83.046875 54.367188 83.8125 54.253906 84.597656 54.253906 C 86.707031 54.253906 88.960938 55.039062 91.199219 55.824219 C 93.429688 56.621094 95.644531 57.40625 97.679688 57.40625 C 97.6875 57.40625 97.6875 57.40625 97.695312 57.40625 C 101.039062 57.398438 104.570312 55.441406 107.972656 54.609375 C 108.886719 54.386719 109.789062 54.246094 110.671875 54.246094 C 111.429688 54.246094 112.179688 54.351562 112.910156 54.59375 C 112.925781 54.601562 112.949219 54.601562 112.964844 54.609375 C 117.757812 56.242188 120.4375 63.25 124.699219 66.261719 C 128.949219 69.25 136.203125 69.128906 139.5625 73.332031 C 142.804688 77.386719 141.058594 84.433594 143.039062 89.492188 C 145.019531 94.550781 151.320312 98.765625 151.667969 103.839844 C 151.894531 107.136719 149.679688 110.128906 147.667969 113.125 C 147.3125 113.664062 146.957031 114.191406 146.625 114.730469 C 145.84375 115.984375 145.1875 117.246094 144.832031 118.546875 C 143.464844 123.554688 146.179688 130.601562 143.242188 134.929688 C 140.324219 139.214844 132.746094 139.414062 128.503906 142.65625 C 127.167969 143.675781 126.03125 145.144531 124.941406 146.71875 C 122.691406 149.953125 120.585938 153.636719 117.101562 154.871094 C 116.195312 155.1875 115.261719 155.316406 114.308594 155.316406 " fill-opacity="1" fill-rule="nonzero"/><path fill="#feec6a" d="M 112.148438 146.507812 C 110.445312 146.507812 108.59375 145.921875 106.664062 145.320312 C 104.699219 144.707031 102.671875 144.0625 100.734375 144.0625 C 100.667969 144.0625 100.601562 144.0625 100.539062 144.0625 C 99.640625 144.085938 98.738281 144.238281 97.839844 144.457031 L 96.160156 141.523438 C 97.53125 141.046875 98.890625 140.628906 100.199219 140.605469 C 100.246094 140.601562 100.289062 140.601562 100.335938 140.601562 C 101.808594 140.601562 103.40625 141.113281 105.023438 141.621094 C 106.632812 142.136719 108.269531 142.648438 109.832031 142.648438 C 110.492188 142.648438 111.132812 142.558594 111.753906 142.332031 C 115.375 141.0625 116.867188 135.925781 119.734375 133.726562 C 122.703125 131.441406 128.011719 131.320312 130.0625 128.296875 C 130.605469 127.488281 130.871094 126.546875 130.992188 125.535156 C 129.65625 125.597656 128.308594 125.632812 126.96875 125.632812 C 116.246094 125.632812 105.675781 123.484375 96.144531 118.222656 C 91.886719 115.871094 88.0625 113.195312 84.394531 110.378906 C 82.246094 110.304688 80.105469 110.117188 78.003906 109.804688 L 64.308594 85.886719 C 64.246094 83.285156 64.261719 80.863281 65.359375 79.199219 C 66.507812 77.445312 68.824219 76.644531 71.273438 75.804688 C 73.207031 75.132812 75.21875 74.445312 76.777344 73.195312 C 78.269531 72.015625 79.410156 70.214844 80.5 68.476562 C 81.949219 66.171875 83.3125 64 85.324219 63.289062 C 85.84375 63.109375 86.390625 63.03125 86.964844 63.03125 C 88.589844 63.03125 90.40625 63.667969 92.296875 64.324219 C 94.21875 65 96.214844 65.6875 98.097656 65.6875 C 98.105469 65.6875 98.121094 65.6875 98.125 65.6875 C 100.125 65.679688 102.121094 64.960938 104.054688 64.265625 C 105.878906 63.605469 107.632812 62.980469 109.226562 62.980469 C 109.765625 62.980469 110.28125 63.046875 110.777344 63.214844 C 112.796875 63.871094 114.378906 65.988281 116.066406 68.21875 C 117.386719 69.96875 118.75 71.773438 120.445312 72.96875 C 122.113281 74.148438 124.203125 74.792969 126.234375 75.40625 C 128.867188 76.214844 131.371094 76.960938 132.761719 78.730469 C 133.980469 80.273438 134.230469 82.90625 134.394531 85.667969 C 134.523438 87.867188 134.652344 90.144531 135.433594 92.171875 C 136.210938 94.1875 137.664062 96.003906 139.070312 97.757812 C 140.839844 99.953125 142.464844 102.09375 142.585938 104.027344 C 142.714844 106.242188 141.277344 108.382812 139.734375 110.660156 C 138.546875 112.40625 137.316406 114.214844 136.785156 116.164062 C 136.242188 118.15625 136.363281 120.394531 136.484375 122.5625 C 136.632812 125.339844 136.769531 127.964844 135.554688 129.761719 C 134.359375 131.53125 131.878906 132.386719 129.261719 133.292969 C 127.1875 134.003906 125.042969 134.746094 123.371094 136.023438 C 121.773438 137.25 120.550781 139.078125 119.355469 140.855469 C 117.773438 143.199219 116.261719 145.433594 114.089844 146.195312 C 113.472656 146.414062 112.820312 146.507812 112.148438 146.507812 " fill-opacity="1" fill-rule="nonzero"/><path fill="#cbb225" d="M 112.132812 148.894531 C 110.066406 148.894531 107.972656 148.246094 105.9375 147.609375 C 104.0625 147.019531 102.292969 146.460938 100.722656 146.460938 C 100.667969 146.460938 100.613281 146.460938 100.570312 146.460938 C 100.085938 146.476562 99.585938 146.535156 99.078125 146.632812 L 98.460938 145.539062 C 99.164062 145.378906 99.867188 145.28125 100.554688 145.265625 C 100.605469 145.265625 100.667969 145.265625 100.726562 145.265625 C 102.496094 145.265625 104.417969 145.871094 106.363281 146.484375 C 108.304688 147.089844 110.273438 147.699219 112.148438 147.699219 C 112.941406 147.699219 113.726562 147.585938 114.484375 147.324219 C 118.855469 145.789062 120.648438 139.625 124.105469 136.976562 C 127.679688 134.222656 134.085938 134.074219 136.550781 130.4375 C 139.03125 126.761719 136.761719 120.761719 137.925781 116.511719 C 139.085938 112.292969 144.039062 108.480469 143.757812 104.003906 C 143.484375 99.6875 138.175781 96.09375 136.519531 91.785156 C 134.863281 87.480469 136.378906 81.476562 133.648438 78.027344 C 130.820312 74.453125 124.65625 74.550781 121.054688 72.007812 C 117.417969 69.445312 115.179688 63.441406 111.058594 62.085938 C 110.4375 61.882812 109.8125 61.800781 109.167969 61.800781 C 105.582031 61.800781 101.6875 64.492188 98.066406 64.5 C 98.058594 64.5 98.050781 64.5 98.035156 64.5 C 96.304688 64.5 94.421875 63.839844 92.515625 63.175781 C 90.617188 62.511719 88.695312 61.84375 86.898438 61.84375 C 86.222656 61.84375 85.566406 61.9375 84.929688 62.164062 C 80.90625 63.578125 79.328125 69.664062 76.097656 72.234375 C 72.746094 74.898438 66.796875 74.898438 64.445312 78.496094 C 63.460938 79.988281 63.21875 81.894531 63.179688 83.917969 L 62.160156 82.140625 C 62.320312 80.5625 62.691406 79.070312 63.527344 77.792969 C 65.09375 75.40625 67.863281 74.453125 70.539062 73.527344 C 72.390625 72.894531 74.140625 72.289062 75.417969 71.273438 C 76.613281 70.324219 77.59375 68.757812 78.640625 67.101562 C 80.226562 64.582031 81.84375 61.980469 84.539062 61.035156 C 85.292969 60.769531 86.074219 60.65625 86.851562 60.65625 C 88.847656 60.65625 90.898438 61.375 92.910156 62.078125 C 94.730469 62.722656 96.464844 63.320312 97.992188 63.320312 C 98 63.320312 98 63.320312 98.007812 63.320312 C 99.632812 63.3125 101.378906 62.691406 103.214844 62.027344 C 105.152344 61.332031 107.132812 60.621094 109.101562 60.621094 C 109.847656 60.621094 110.597656 60.726562 111.339844 60.96875 C 114.074219 61.867188 115.980469 64.394531 117.828125 66.835938 C 119.089844 68.507812 120.285156 70.082031 121.667969 71.046875 C 123.015625 72.007812 124.835938 72.570312 126.773438 73.160156 C 129.65625 74.035156 132.648438 74.9375 134.53125 77.324219 C 135.007812 77.921875 135.394531 78.617188 135.703125 79.390625 C 136.453125 81.304688 136.589844 83.511719 136.71875 85.644531 C 136.839844 87.65625 136.960938 89.742188 137.601562 91.40625 C 138.246094 93.070312 139.582031 94.726562 140.871094 96.320312 C 142.804688 98.71875 144.777344 101.382812 144.945312 103.984375 C 145.128906 106.96875 143.394531 109.539062 141.714844 112.019531 C 140.582031 113.691406 139.507812 115.265625 139.070312 116.855469 C 138.632812 118.464844 138.746094 120.414062 138.867188 122.488281 C 139.03125 125.519531 139.207031 128.660156 137.550781 131.109375 C 135.917969 133.519531 132.9375 134.550781 130.0625 135.539062 C 128.082031 136.222656 126.199219 136.871094 124.828125 137.921875 C 123.542969 138.90625 122.476562 140.5 121.34375 142.1875 C 119.605469 144.757812 117.804688 147.421875 114.871094 148.449219 C 113.96875 148.773438 113.054688 148.894531 112.132812 148.894531 " fill-opacity="1" fill-rule="nonzero"/><path fill="#ccbd55" d="M 112.148438 147.699219 C 110.273438 147.699219 108.304688 147.089844 106.363281 146.484375 C 104.417969 145.871094 102.496094 145.265625 100.726562 145.265625 C 100.667969 145.265625 100.605469 145.265625 100.554688 145.265625 C 99.867188 145.28125 99.164062 145.378906 98.460938 145.539062 L 97.839844 144.457031 C 98.738281 144.238281 99.640625 144.085938 100.539062 144.0625 C 100.601562 144.0625 100.667969 144.0625 100.734375 144.0625 C 102.671875 144.0625 104.699219 144.707031 106.664062 145.320312 C 108.59375 145.921875 110.445312 146.507812 112.148438 146.507812 C 112.820312 146.507812 113.472656 146.414062 114.089844 146.195312 C 116.261719 145.433594 117.773438 143.199219 119.355469 140.855469 C 120.550781 139.078125 121.773438 137.25 123.371094 136.023438 C 125.042969 134.746094 127.1875 134.003906 129.261719 133.292969 C 131.878906 132.386719 134.359375 131.53125 135.554688 129.761719 C 136.769531 127.964844 136.632812 125.339844 136.484375 122.5625 C 136.363281 120.394531 136.242188 118.15625 136.785156 116.164062 C 137.316406 114.214844 138.546875 112.40625 139.734375 110.660156 C 141.277344 108.382812 142.714844 106.242188 142.585938 104.027344 C 142.464844 102.09375 140.839844 99.953125 139.070312 97.757812 C 137.664062 96.003906 136.210938 94.1875 135.433594 92.171875 C 134.652344 90.144531 134.523438 87.867188 134.394531 85.667969 C 134.230469 82.90625 133.980469 80.273438 132.761719 78.730469 C 131.371094 76.960938 128.867188 76.214844 126.234375 75.40625 C 124.203125 74.792969 122.113281 74.148438 120.445312 72.96875 C 118.75 71.773438 117.386719 69.96875 116.066406 68.21875 C 114.378906 65.988281 112.796875 63.871094 110.777344 63.214844 C 110.28125 63.046875 109.765625 62.980469 109.226562 62.980469 C 107.632812 62.980469 105.878906 63.605469 104.054688 64.265625 C 102.121094 64.960938 100.125 65.679688 98.125 65.6875 C 98.121094 65.6875 98.105469 65.6875 98.097656 65.6875 C 96.214844 65.6875 94.21875 65 92.296875 64.324219 C 90.40625 63.667969 88.589844 63.03125 86.964844 63.03125 C 86.390625 63.03125 85.84375 63.109375 85.324219 63.289062 C 83.3125 64 81.949219 66.171875 80.5 68.476562 C 79.410156 70.214844 78.269531 72.015625 76.777344 73.195312 C 75.21875 74.445312 73.207031 75.132812 71.273438 75.804688 C 68.824219 76.644531 66.507812 77.445312 65.359375 79.199219 C 64.261719 80.863281 64.246094 83.285156 64.308594 85.886719 L 63.179688 83.917969 C 63.21875 81.894531 63.460938 79.988281 64.445312 78.496094 C 66.796875 74.898438 72.746094 74.898438 76.097656 72.234375 C 79.328125 69.664062 80.90625 63.578125 84.929688 62.164062 C 85.566406 61.9375 86.222656 61.84375 86.898438 61.84375 C 88.695312 61.84375 90.617188 62.511719 92.515625 63.175781 C 94.421875 63.839844 96.304688 64.5 98.035156 64.5 C 98.050781 64.5 98.058594 64.5 98.066406 64.5 C 101.6875 64.492188 105.582031 61.800781 109.167969 61.800781 C 109.8125 61.800781 110.4375 61.882812 111.058594 62.085938 C 115.179688 63.441406 117.417969 69.445312 121.054688 72.007812 C 124.65625 74.550781 130.820312 74.453125 133.648438 78.027344 C 136.378906 81.476562 134.863281 87.480469 136.519531 91.785156 C 138.175781 96.09375 143.484375 99.6875 143.757812 104.003906 C 144.039062 108.480469 139.085938 112.292969 137.925781 116.511719 C 136.761719 120.761719 139.03125 126.761719 136.550781 130.4375 C 134.085938 134.074219 127.679688 134.222656 124.105469 136.976562 C 120.648438 139.625 118.855469 145.789062 114.484375 147.324219 C 113.726562 147.585938 112.941406 147.699219 112.148438 147.699219 " fill-opacity="1" fill-rule="nonzero"/><path fill="#fef4a3" d="M 109.832031 142.648438 C 108.269531 142.648438 106.632812 142.136719 105.023438 141.621094 C 103.40625 141.113281 101.808594 140.601562 100.335938 140.601562 C 100.289062 140.601562 100.246094 140.601562 100.199219 140.605469 C 98.890625 140.628906 97.53125 141.046875 96.160156 141.523438 L 78.003906 109.804688 C 80.105469 110.117188 82.246094 110.304688 84.394531 110.378906 C 88.0625 113.195312 91.886719 115.871094 96.144531 118.222656 C 105.675781 123.484375 116.246094 125.632812 126.96875 125.632812 C 128.308594 125.632812 129.65625 125.597656 130.992188 125.535156 C 130.871094 126.546875 130.605469 127.488281 130.0625 128.296875 C 128.011719 131.320312 122.703125 131.441406 119.734375 133.726562 C 116.867188 135.925781 115.375 141.0625 111.753906 142.332031 C 111.132812 142.558594 110.492188 142.648438 109.832031 142.648438 " fill-opacity="1" fill-rule="nonzero"/><path fill="#f1f2f1" d="M 183.023438 293.246094 L 179.695312 287.429688 C 182.136719 285.039062 184.746094 282.953125 187.605469 281.410156 C 186.386719 285.480469 184.707031 289.367188 183.023438 293.246094 M 243.65625 278.695312 C 237.8125 278.695312 231.980469 278.339844 226.164062 277.5625 C 224.417969 277.328125 218.589844 275.140625 215.773438 275.140625 C 215.246094 275.140625 214.820312 275.21875 214.558594 275.40625 C 217.136719 273.628906 220.378906 272.644531 223.335938 271.730469 C 229.265625 269.902344 235.542969 269.144531 241.742188 269.144531 C 242.453125 269.144531 243.164062 269.152344 243.875 269.175781 C 245.820312 269.226562 263.078125 272.480469 259.03125 276.859375 C 258.683594 277.230469 258.328125 277.621094 257.957031 278.03125 C 253.1875 278.453125 248.421875 278.695312 243.65625 278.695312 " fill-opacity="1" fill-rule="nonzero"/><path fill="#f1f2f1" d="M 365.335938 329.199219 L 363.671875 326.292969 L 368.820312 326.292969 C 367.671875 327.269531 366.507812 328.230469 365.335938 329.199219 M 380.542969 316.054688 L 357.8125 316.054688 L 356.132812 313.121094 C 356.285156 313.023438 356.433594 312.929688 356.585938 312.832031 C 359.15625 313.6875 362.105469 314.058594 365.199219 314.058594 C 370.71875 314.058594 376.695312 312.886719 381.835938 311.230469 C 383.160156 310.84375 384.4375 310.367188 385.679688 309.839844 C 386.722656 309.414062 387.707031 308.976562 388.613281 308.53125 C 385.972656 311.046875 383.289062 313.558594 380.542969 316.054688 M 368.050781 312.121094 C 365.238281 312.121094 362.515625 311.660156 360.019531 310.585938 C 374.925781 300.226562 383.460938 286.242188 387.457031 267.367188 C 387.578125 266.839844 387.09375 266.46875 386.660156 266.308594 C 384.371094 265.46875 382.054688 265.082031 379.765625 265.082031 C 364.195312 265.082031 349.386719 282.839844 347.632812 297.019531 C 347.585938 297.375 347.550781 297.730469 347.519531 298.078125 L 315.46875 242.101562 L 409.105469 242.101562 L 425.027344 269.902344 C 422.9375 272.304688 420.835938 274.703125 418.71875 277.09375 C 417.828125 277.371094 416.980469 278.304688 417.054688 278.960938 C 410.589844 286.183594 403.910156 293.34375 396.886719 300.40625 C 394.351562 301.988281 391.871094 303.636719 389.308594 305.113281 C 384.921875 306.003906 381.472656 307.410156 377.558594 309.703125 C 376.890625 310.085938 376.597656 310.511719 376.566406 310.890625 C 373.753906 311.660156 370.855469 312.121094 368.050781 312.121094 M 357.441406 309.179688 C 356.304688 308.425781 355.246094 307.507812 354.273438 306.414062 C 345.96875 297.050781 355.929688 282.847656 362.667969 276.042969 C 366.917969 271.761719 372.496094 268.472656 378.523438 267.714844 C 378.871094 267.679688 379.207031 267.65625 379.507812 267.65625 C 387.03125 267.65625 380.257812 280.707031 378.523438 284.898438 C 374.214844 295.339844 366.5625 303.128906 357.441406 309.179688 M 398.117188 222.910156 L 304.480469 222.910156 L 280.09375 180.316406 L 373.730469 180.316406 L 398.117188 222.910156 M 362.742188 161.117188 L 269.105469 161.117188 L 252.617188 132.328125 L 346.257812 132.328125 L 362.742188 161.117188 M 335.269531 113.125 L 241.628906 113.125 L 218.390625 72.539062 L 312.027344 72.539062 L 335.269531 113.125 M 306.160156 62.292969 L 212.523438 62.292969 L 208.121094 54.609375 L 301.765625 54.609375 L 306.160156 62.292969 M 295.898438 44.367188 L 202.261719 44.367188 L 192.890625 28.003906 L 286.527344 28.003906 L 295.898438 44.367188 " fill-opacity="1" fill-rule="nonzero"/><path fill="#ececeb" d="M 469.273438 347.1875 L 375.636719 347.1875 L 365.335938 329.199219 C 366.507812 328.230469 367.671875 327.269531 368.820312 326.292969 L 457.308594 326.292969 L 469.273438 347.1875 M 451.449219 316.054688 L 380.542969 316.054688 C 383.289062 313.558594 385.972656 311.046875 388.613281 308.53125 C 389.601562 308.039062 390.503906 307.539062 391.296875 307.046875 C 391.492188 306.917969 391.644531 306.796875 391.75 306.675781 C 394.570312 305.003906 397.324219 303.175781 400.207031 301.453125 C 400.894531 305.042969 402.171875 308.484375 402.609375 312.144531 C 402.679688 312.757812 403.230469 312.96875 403.859375 312.96875 C 404.5625 312.96875 405.378906 312.695312 405.703125 312.445312 C 409.097656 309.84375 412.277344 307.214844 415.15625 304.144531 C 415.527344 304.507812 415.898438 304.878906 416.269531 305.246094 C 416.632812 305.609375 417.109375 305.761719 417.597656 305.761719 C 418.167969 305.761719 418.75 305.558594 419.210938 305.238281 C 423.832031 302.027344 427.90625 298.644531 431.5 294.5 C 432.949219 299.683594 433.441406 304.929688 434.125 310.34375 C 434.199219 310.957031 434.757812 311.167969 435.394531 311.167969 C 436.097656 311.167969 436.890625 310.910156 437.214844 310.648438 C 439.839844 308.523438 442.230469 306.300781 444.476562 303.878906 L 451.449219 316.054688 M 405.945312 308.71875 C 405.242188 305.308594 404.0625 302.027344 403.648438 298.539062 C 403.570312 297.925781 402.929688 297.722656 402.269531 297.722656 C 401.757812 297.722656 401.234375 297.84375 400.960938 297.996094 C 399.578125 298.757812 398.226562 299.566406 396.886719 300.40625 C 403.910156 293.34375 410.589844 286.183594 417.054688 278.960938 C 417.09375 279.332031 417.433594 279.617188 418.226562 279.640625 C 422.394531 279.753906 426.574219 279.839844 430.75 279.898438 L 442.910156 301.140625 C 441.203125 303.128906 439.460938 304.921875 437.535156 306.667969 C 436.867188 301.132812 436.1875 295.765625 434.257812 290.433594 C 434.039062 289.835938 433.441406 289.59375 432.792969 289.59375 C 432.035156 289.59375 431.195312 289.933594 430.832031 290.425781 C 427.324219 295.167969 423.171875 298.972656 418.476562 302.410156 C 417.984375 301.921875 417.492188 301.429688 416.996094 300.9375 C 416.640625 300.574219 416.132812 300.414062 415.609375 300.414062 C 414.898438 300.414062 414.160156 300.71875 413.726562 301.230469 C 411.367188 304.03125 408.742188 306.441406 405.945312 308.71875 M 418.71875 277.09375 C 420.835938 274.703125 422.9375 272.304688 425.027344 269.902344 L 428.339844 275.6875 C 424.761719 276.230469 421.539062 276.773438 419.066406 277.015625 C 418.953125 277.03125 418.832031 277.054688 418.71875 277.09375 " fill-opacity="1" fill-rule="nonzero"/><path fill="#d4d5d2" d="M 301.765625 54.609375 L 208.121094 54.609375 L 202.261719 44.367188 L 295.898438 44.367188 L 301.765625 54.609375 " fill-opacity="1" fill-rule="nonzero"/><path fill="#d4d5d2" d="M 312.027344 72.539062 L 218.390625 72.539062 L 212.523438 62.292969 L 306.160156 62.292969 L 312.027344 72.539062 " fill-opacity="1" fill-rule="nonzero"/><path fill="#d4d5d2" d="M 346.257812 132.328125 L 252.617188 132.328125 L 241.628906 113.125 L 335.269531 113.125 L 346.257812 132.328125 " fill-opacity="1" fill-rule="nonzero"/><path fill="#d4d5d2" d="M 373.730469 180.316406 L 280.09375 180.316406 L 269.105469 161.117188 L 362.742188 161.117188 L 373.730469 180.316406 " fill-opacity="1" fill-rule="nonzero"/><path fill="#d4d5d2" d="M 409.105469 242.101562 L 315.46875 242.101562 L 304.480469 222.910156 L 398.117188 222.910156 L 409.105469 242.101562 " fill-opacity="1" fill-rule="nonzero"/><path fill="#d4d5d2" d="M 368.820312 326.292969 L 363.671875 326.292969 L 357.8125 316.054688 L 380.542969 316.054688 C 376.746094 319.503906 372.84375 322.914062 368.820312 326.292969 " fill-opacity="1" fill-rule="nonzero"/><path fill="#cfcfcd" d="M 457.308594 326.292969 L 368.820312 326.292969 C 372.84375 322.914062 376.746094 319.503906 380.542969 316.054688 L 451.449219 316.054688 L 457.308594 326.292969 " fill-opacity="1" fill-rule="nonzero"/><path fill="#817772" d="M 177.894531 312.6875 C 177.320312 312.6875 176.59375 312.53125 176.691406 311.886719 C 177.742188 305.277344 180.398438 299.273438 183.023438 293.246094 L 184.835938 296.40625 C 183.582031 299.289062 182.453125 302.207031 181.691406 305.253906 C 181.078125 307.660156 181.433594 308.539062 182.273438 308.539062 C 183.847656 308.539062 187.113281 305.472656 188.964844 303.621094 L 190.328125 305.996094 C 186.863281 309.25 183.082031 311.96875 178.304688 312.660156 C 178.191406 312.675781 178.046875 312.6875 177.894531 312.6875 M 160.570312 308.863281 C 159.738281 308.863281 159.148438 308.613281 159.648438 308.015625 C 165.46875 300.996094 171.195312 291.863281 178.476562 285.304688 L 179.695312 287.429688 C 173.394531 293.625 168.269531 301.875 163.117188 308.074219 C 162.726562 308.550781 161.492188 308.863281 160.570312 308.863281 M 300.625 274.882812 L 299.550781 273 C 303.632812 272.554688 307.726562 272.175781 311.824219 271.914062 C 311.921875 271.90625 312.019531 271.90625 312.113281 271.90625 C 314.3125 271.90625 313.058594 273.824219 311.300781 273.945312 C 307.75 274.175781 304.195312 274.5 300.625 274.882812 " fill-opacity="1" fill-rule="nonzero"/><path fill="#887e79" d="M 208.082031 309.132812 C 207.613281 309.132812 207.273438 308.984375 207.238281 308.542969 C 207.054688 305.882812 206.546875 303.273438 206.191406 300.632812 C 205.964844 300.800781 205.738281 300.96875 205.511719 301.132812 C 205.203125 301.4375 203.992188 301.890625 203.109375 301.890625 C 202.511719 301.890625 202.0625 301.6875 202.148438 301.082031 C 202.171875 300.953125 202.183594 300.832031 202.207031 300.703125 C 200.1875 302.410156 198.125 304.058594 195.96875 305.632812 C 195.726562 305.808594 194.253906 306.304688 193.320312 306.304688 C 192.753906 306.304688 192.382812 306.125 192.605469 305.582031 C 193.011719 304.558594 193.390625 303.546875 193.777344 302.539062 C 192.648438 303.710938 191.507812 304.882812 190.328125 305.996094 L 188.964844 303.621094 C 189.367188 303.222656 189.707031 302.878906 189.941406 302.636719 C 192.164062 300.363281 194.378906 298.109375 196.800781 296.042969 C 197.125 295.765625 198.367188 295.394531 199.25 295.394531 C 199.960938 295.394531 200.445312 295.636719 200.03125 296.371094 C 199.121094 297.980469 198.433594 299.636719 197.792969 301.316406 C 199.839844 299.621094 201.828125 297.867188 203.796875 296.042969 C 204.054688 295.800781 205.4375 295.394531 206.367188 295.394531 C 206.980469 295.394531 207.394531 295.566406 207.160156 296.097656 C 206.925781 296.617188 206.722656 297.132812 206.554688 297.648438 C 206.738281 297.558594 206.917969 297.472656 207.101562 297.390625 C 207.34375 297.285156 208.082031 297.082031 208.71875 297.082031 C 209.234375 297.082031 209.664062 297.214844 209.710938 297.640625 C 209.945312 300.285156 210.464844 302.886719 210.785156 305.519531 C 212.128906 304.582031 213.4375 303.597656 214.617188 302.351562 C 215.070312 301.859375 215.925781 301.585938 216.691406 301.585938 C 217.023438 301.585938 217.339844 301.640625 217.605469 301.746094 C 219.480469 302.503906 221.386719 302.851562 223.300781 302.851562 C 235.347656 302.851562 247.757812 289.3125 256.007812 280.179688 C 251.402344 280.535156 246.796875 280.746094 242.199219 280.746094 C 231.785156 280.746094 221.410156 279.65625 211.148438 276.632812 C 210.085938 276.320312 210.390625 275.609375 211.140625 275.097656 C 217.90625 270.4375 230.90625 266.300781 242.613281 266.300781 C 251.4375 266.300781 259.53125 268.652344 263.667969 274.90625 C 263.941406 275.324219 263.726562 275.59375 263.425781 275.929688 C 262.886719 276.496094 262.359375 277.070312 261.828125 277.652344 C 274.429688 276.34375 286.960938 274.363281 299.550781 273 L 300.625 274.882812 C 287.058594 276.335938 273.398438 278.621094 259.773438 279.867188 C 251.878906 288.324219 243.566406 296.589844 233.242188 301.980469 C 230.128906 303.605469 225.984375 305.125 222.261719 305.125 C 221.878906 305.125 221.484375 305.113281 221.105469 305.074219 C 219.691406 304.9375 218.640625 304.847656 217.765625 304.847656 C 215.289062 304.847656 214.253906 305.59375 210.601562 308.339844 C 210.316406 308.550781 208.984375 309.132812 208.082031 309.132812 M 215.773438 275.140625 C 218.589844 275.140625 224.417969 277.328125 226.164062 277.5625 C 231.980469 278.339844 237.8125 278.695312 243.65625 278.695312 C 248.421875 278.695312 253.1875 278.453125 257.957031 278.03125 C 258.328125 277.621094 258.683594 277.230469 259.03125 276.859375 C 263.078125 272.480469 245.820312 269.226562 243.875 269.175781 C 243.164062 269.152344 242.453125 269.144531 241.742188 269.144531 C 235.542969 269.144531 229.265625 269.902344 223.335938 271.730469 C 220.378906 272.644531 217.136719 273.628906 214.558594 275.40625 C 214.820312 275.21875 215.246094 275.140625 215.773438 275.140625 M 184.835938 296.40625 L 183.023438 293.246094 C 184.707031 289.367188 186.386719 285.480469 187.605469 281.410156 C 184.746094 282.953125 182.136719 285.039062 179.695312 287.429688 L 178.476562 285.304688 C 181.722656 282.378906 185.277344 279.964844 189.285156 278.484375 C 189.511719 278.402344 190.257812 278.210938 190.902344 278.210938 C 191.523438 278.210938 192.042969 278.386719 191.886719 278.992188 C 190.304688 285.09375 187.324219 290.667969 184.835938 296.40625 " fill-opacity="1" fill-rule="nonzero"/><path fill="#817772" d="M 351.097656 315.667969 C 349.695312 315.667969 348.738281 314.277344 350.542969 313.300781 C 351.59375 312.734375 352.632812 312.152344 353.652344 311.546875 C 349.492188 309.179688 346.953125 304.953125 347.519531 298.078125 L 356.132812 313.121094 C 354.855469 313.898438 353.53125 314.65625 352.167969 315.390625 C 351.808594 315.585938 351.4375 315.667969 351.097656 315.667969 " fill-opacity="1" fill-rule="nonzero"/><path fill="#7d736e" d="M 444.476562 303.878906 L 442.910156 301.140625 C 443.386719 300.589844 443.863281 300.023438 444.339844 299.433594 C 444.769531 298.902344 445.503906 298.621094 446.222656 298.621094 C 446.625 298.621094 447.015625 298.714844 447.34375 298.894531 C 448.082031 299.296875 448.824219 299.484375 449.566406 299.484375 C 455.441406 299.484375 461.015625 287.898438 459.328125 283.332031 C 458.800781 281.894531 457.882812 280.820312 456.734375 280.003906 C 454.207031 280.019531 451.683594 280.027344 449.148438 280.027344 C 443.015625 280.027344 436.882812 279.988281 430.75 279.898438 L 428.339844 275.6875 C 433.421875 274.90625 439.242188 274.105469 444.710938 274.105469 C 450.222656 274.105469 455.382812 274.921875 459.054688 277.378906 C 475.738281 277.296875 492.414062 277.039062 509.097656 277.015625 C 509.097656 277.015625 509.105469 277.015625 509.105469 277.015625 C 511.644531 277.015625 510.828125 279.640625 508.734375 279.640625 C 493.117188 279.664062 477.5 279.882812 461.878906 279.980469 C 462.082031 280.246094 462.277344 280.519531 462.46875 280.804688 C 467.390625 288.445312 457.484375 302.019531 448.46875 302.019531 C 447.757812 302.019531 447.054688 301.933594 446.359375 301.753906 C 445.746094 302.480469 445.113281 303.183594 444.476562 303.878906 " fill-opacity="1" fill-rule="nonzero"/><path fill="#887e79" d="M 365.199219 314.058594 C 362.105469 314.058594 359.15625 313.6875 356.585938 312.832031 C 356.433594 312.929688 356.285156 313.023438 356.132812 313.121094 L 347.519531 298.078125 C 347.550781 297.730469 347.585938 297.375 347.632812 297.019531 C 349.386719 282.839844 364.195312 265.082031 379.765625 265.082031 C 382.054688 265.082031 384.371094 265.46875 386.660156 266.308594 C 387.09375 266.46875 387.578125 266.839844 387.457031 267.367188 C 383.460938 286.242188 374.925781 300.226562 360.019531 310.585938 C 362.515625 311.660156 365.238281 312.121094 368.050781 312.121094 C 370.855469 312.121094 373.753906 311.660156 376.566406 310.890625 C 376.597656 310.511719 376.890625 310.085938 377.558594 309.703125 C 381.472656 307.410156 384.921875 306.003906 389.308594 305.113281 C 391.871094 303.636719 394.351562 301.988281 396.886719 300.40625 C 394.1875 303.128906 391.425781 305.835938 388.613281 308.53125 C 387.707031 308.976562 386.722656 309.414062 385.679688 309.839844 C 384.4375 310.367188 383.160156 310.84375 381.835938 311.230469 C 376.695312 312.886719 370.71875 314.058594 365.199219 314.058594 M 379.507812 267.65625 C 379.207031 267.65625 378.871094 267.679688 378.523438 267.714844 C 372.496094 268.472656 366.917969 271.761719 362.667969 276.042969 C 355.929688 282.847656 345.96875 297.050781 354.273438 306.414062 C 355.246094 307.507812 356.304688 308.425781 357.441406 309.179688 C 366.5625 303.128906 374.214844 295.339844 378.523438 284.898438 C 380.257812 280.707031 387.03125 267.65625 379.507812 267.65625 M 417.054688 278.960938 C 416.980469 278.304688 417.828125 277.371094 418.71875 277.09375 C 418.167969 277.714844 417.605469 278.339844 417.054688 278.960938 " fill-opacity="1" fill-rule="nonzero"/><path fill="#867b76" d="M 403.859375 312.96875 C 403.230469 312.96875 402.679688 312.757812 402.609375 312.144531 C 402.171875 308.484375 400.894531 305.042969 400.207031 301.453125 C 397.324219 303.175781 394.570312 305.003906 391.75 306.675781 C 391.644531 306.796875 391.492188 306.917969 391.296875 307.046875 C 390.503906 307.539062 389.601562 308.039062 388.613281 308.53125 C 391.425781 305.835938 394.1875 303.128906 396.886719 300.40625 C 398.226562 299.566406 399.578125 298.757812 400.960938 297.996094 C 401.234375 297.84375 401.757812 297.722656 402.269531 297.722656 C 402.929688 297.722656 403.570312 297.925781 403.648438 298.539062 C 404.0625 302.027344 405.242188 305.308594 405.945312 308.71875 C 408.742188 306.441406 411.367188 304.03125 413.726562 301.230469 C 414.160156 300.71875 414.898438 300.414062 415.609375 300.414062 C 416.132812 300.414062 416.640625 300.574219 416.996094 300.9375 C 417.492188 301.429688 417.984375 301.921875 418.476562 302.410156 C 423.171875 298.972656 427.324219 295.167969 430.832031 290.425781 C 431.195312 289.933594 432.035156 289.59375 432.792969 289.59375 C 433.441406 289.59375 434.039062 289.835938 434.257812 290.433594 C 436.1875 295.765625 436.867188 301.132812 437.535156 306.667969 C 439.460938 304.921875 441.203125 303.128906 442.910156 301.140625 L 444.476562 303.878906 C 442.230469 306.300781 439.839844 308.523438 437.214844 310.648438 C 436.890625 310.910156 436.097656 311.167969 435.394531 311.167969 C 434.757812 311.167969 434.199219 310.957031 434.125 310.34375 C 433.441406 304.929688 432.949219 299.683594 431.5 294.5 C 427.90625 298.644531 423.832031 302.027344 419.210938 305.238281 C 418.75 305.558594 418.167969 305.761719 417.597656 305.761719 C 417.109375 305.761719 416.632812 305.609375 416.269531 305.246094 C 415.898438 304.878906 415.527344 304.507812 415.15625 304.144531 C 412.277344 307.214844 409.097656 309.84375 405.703125 312.445312 C 405.378906 312.695312 404.5625 312.96875 403.859375 312.96875 M 430.75 279.898438 C 426.574219 279.839844 422.394531 279.753906 418.226562 279.640625 C 417.433594 279.617188 417.09375 279.332031 417.054688 278.960938 C 417.605469 278.339844 418.167969 277.714844 418.71875 277.09375 C 418.832031 277.054688 418.953125 277.03125 419.066406 277.015625 C 421.539062 276.773438 424.761719 276.230469 428.339844 275.6875 L 430.75 279.898438 " fill-opacity="1" fill-rule="nonzero"/></svg>