<svg xmlns="http://www.w3.org/2000/svg" xmlns:xlink="http://www.w3.org/1999/xlink" width="800" zoomAndPan="magnify" viewBox="0 0 600 374.999991" height="500" preserveAspectRatio="xMidYMid meet" version="1.0"><defs><filter x="0%" y="0%" width="100%" height="100%" id="847a142b87"><feColorMatrix values="0 0 0 0 1 0 0 0 0 1 0 0 0 0 1 0 0 0 1 0" color-interpolation-filters="sRGB"/></filter><mask id="66e3acb0bc"><g filter="url(#847a142b87)"><rect x="-60" width="720" fill="#000000" y="-37.499999" height="449.999989" fill-opacity="0.08"/></g></mask><clipPath id="5f44e37946"><path d="M 0 0 L 600 0 L 600 375 L 0 375 Z M 0 0 " clip-rule="nonzero"/></clipPath><clipPath id="45f60d55f8"><rect x="0" width="600" y="0" height="375"/></clipPath><clipPath id="bc97b55851"><rect x="0" width="600" y="0" height="375"/></clipPath><clipPath id="51a81a7669"><path d="M 222 97.5 L 372 97.5 L 372 247.5 L 222 247.5 Z M 222 97.5 " clip-rule="nonzero"/></clipPath></defs><rect x="-60" width="720" fill="#ffffff" y="-37.499999" height="449.999989" fill-opacity="1"/><rect x="-60" width="720" fill="#ffffff" y="-37.499999" height="449.999989" fill-opacity="1"/><g mask="url(#66e3acb0bc)"><g transform="matrix(1, 0, 0, 1, 0, 0)"><g clip-path="url(#bc97b55851)"><g transform="matrix(1, 0, 0, 1, 0, 0)"><g clip-path="url(#45f60d55f8)"><g clip-path="url(#5f44e37946)"><rect x="-218.4" width="1036.8" fill="#000000" y="-136.499997" height="647.999984" fill-opacity="1"/></g></g></g></g></g></g><path stroke-linecap="butt" transform="matrix(0.635999, 0.397499, -0.397499, 0.635999, 0.794577, -1.270509)" fill="none" stroke-linejoin="miter" d="M -0.000575652 1.998019 L 943.397534 1.998028 " stroke="#000000" stroke-width="4" stroke-opacity="1" stroke-miterlimit="4"/><path stroke-linecap="butt" transform="matrix(0.635999, -0.397499, 0.397499, 0.635999, -0.795419, 373.726499)" fill="none" stroke-linejoin="miter" d="M -0.000586113 2.001997 L 943.397523 2.001989 " stroke="#000000" stroke-width="4" stroke-opacity="1" stroke-miterlimit="4"/><path fill="#fee570" d="M 264.558594 105.367188 C 266.746094 105.976562 268.820312 106.851562 270.757812 107.941406 L 275.554688 105.941406 C 276.101562 105.71875 276.703125 105.835938 277.128906 106.25 L 283.152344 112.277344 C 283.570312 112.703125 283.6875 113.300781 283.460938 113.851562 L 281.464844 118.644531 C 282.554688 120.585938 283.429688 122.65625 284.035156 124.847656 L 288.839844 126.828125 C 289.386719 127.050781 289.730469 127.558594 289.730469 128.152344 L 289.730469 136.675781 C 289.730469 137.273438 289.386719 137.78125 288.839844 138.003906 L 284.035156 139.988281 C 283.429688 142.167969 282.554688 144.25 281.464844 146.1875 L 283.460938 150.980469 C 283.6875 151.53125 283.570312 152.132812 283.152344 152.554688 L 277.128906 158.574219 C 276.703125 159 276.101562 159.113281 275.554688 158.890625 L 270.757812 156.894531 C 268.820312 157.984375 266.746094 158.847656 264.558594 159.464844 L 262.578125 164.269531 C 262.351562 164.816406 261.84375 165.148438 261.246094 165.148438 L 252.730469 165.148438 C 252.128906 165.148438 251.621094 164.816406 251.398438 164.269531 L 249.417969 159.464844 C 247.234375 158.847656 245.15625 157.984375 243.214844 156.894531 L 238.421875 158.890625 C 237.871094 159.113281 237.273438 159 236.847656 158.574219 L 230.828125 152.554688 C 230.40625 152.132812 230.289062 151.53125 230.511719 150.980469 L 232.511719 146.1875 C 231.421875 144.25 230.554688 142.167969 229.9375 139.988281 L 225.136719 138.003906 C 224.585938 137.78125 224.253906 137.273438 224.253906 136.675781 L 224.253906 128.152344 C 224.253906 127.558594 224.585938 127.050781 225.136719 126.828125 L 229.9375 124.847656 C 230.554688 122.65625 231.421875 120.585938 232.511719 118.644531 L 230.511719 113.851562 C 230.289062 113.300781 230.40625 112.703125 230.828125 112.277344 L 236.847656 106.25 C 237.273438 105.835938 237.871094 105.71875 238.421875 105.941406 L 243.214844 107.941406 C 245.15625 106.851562 247.234375 105.976562 249.417969 105.367188 L 251.398438 100.566406 C 251.621094 100.015625 252.128906 99.675781 252.730469 99.675781 L 261.246094 99.675781 C 261.84375 99.675781 262.351562 100.015625 262.578125 100.566406 Z M 264.558594 105.367188 " fill-opacity="1" fill-rule="evenodd"/><path fill="#e1effb" d="M 243.796875 120 C 250.65625 112.710938 262.121094 112.367188 269.402344 119.21875 C 276.695312 126.078125 277.035156 137.546875 270.183594 144.832031 C 263.328125 152.113281 251.855469 152.464844 244.574219 145.605469 C 237.289062 138.746094 236.941406 127.285156 243.796875 120 Z M 243.796875 120 " fill-opacity="1" fill-rule="evenodd"/><path fill="#eceafd" d="M 255.902344 137.566406 L 369.894531 137.566406 L 369.894531 234.953125 C 369.894531 240.664062 365.234375 245.324219 359.53125 245.324219 L 243.65625 245.324219 L 243.65625 149.816406 C 243.65625 143.066406 249.160156 137.566406 255.902344 137.566406 Z M 255.902344 137.566406 " fill-opacity="1" fill-rule="evenodd"/><path fill="#b0acf7" d="M 359.53125 120.410156 L 349.160156 120.410156 L 349.160156 224.589844 L 359.53125 224.589844 C 365.234375 224.589844 369.894531 229.25 369.894531 234.953125 L 369.894531 130.78125 C 369.894531 125.078125 365.234375 120.410156 359.53125 120.410156 Z M 359.53125 120.410156 " fill-opacity="1" fill-rule="evenodd"/><path fill="#ff656f" d="M 229.613281 170.003906 L 225.761719 173.175781 C 223.996094 174.628906 223.738281 177.261719 225.195312 179.027344 L 262.386719 224.222656 L 276.902344 231.398438 L 272.664062 215.765625 L 235.476562 170.570312 C 234.019531 168.804688 231.386719 168.546875 229.613281 170.003906 Z M 229.613281 170.003906 " fill-opacity="1" fill-rule="evenodd"/><path fill="#fee570" d="M 231.398438 186.566406 L 241.675781 178.109375 L 247.746094 185.484375 L 237.464844 193.941406 Z M 231.398438 186.566406 " fill-opacity="1" fill-rule="nonzero"/><path fill="#ffeecc" d="M 272.664062 215.765625 L 262.386719 224.222656 L 276.902344 231.398438 Z M 272.664062 215.765625 " fill-opacity="1" fill-rule="evenodd"/><path fill="#2f5274" d="M 296.40625 181.515625 L 253.886719 165.058594 L 296.40625 148.601562 L 338.933594 165.058594 Z M 296.40625 181.515625 " fill-opacity="1" fill-rule="evenodd"/><path fill="#2f5274" d="M 276.363281 187.542969 C 276.402344 190.6875 285.367188 193.234375 296.40625 193.234375 C 307.441406 193.234375 316.414062 190.6875 316.457031 187.542969 L 316.457031 170.609375 C 316.414062 167.464844 307.449219 164.917969 296.40625 164.917969 C 285.359375 164.917969 276.402344 167.464844 276.363281 170.609375 Z M 276.363281 187.542969 " fill-opacity="1" fill-rule="evenodd"/><path fill="#2f5274" d="M 296.40625 181.789062 C 307.484375 181.789062 316.457031 184.351562 316.457031 187.515625 C 316.457031 190.679688 307.484375 193.234375 296.40625 193.234375 C 285.324219 193.234375 276.363281 190.671875 276.363281 187.515625 C 276.363281 184.359375 285.335938 181.789062 296.40625 181.789062 Z M 296.40625 181.789062 " fill-opacity="1" fill-rule="evenodd"/><g clip-path="url(#51a81a7669)"><path fill="#000000" d="M 339.640625 162.902344 L 297.253906 146.5 C 296.710938 146.289062 296.105469 146.289062 295.5625 146.5 L 253.183594 162.902344 C 252.285156 163.25 251.6875 164.117188 251.6875 165.082031 C 251.6875 166.050781 252.285156 166.914062 253.183594 167.265625 L 262.90625 171.027344 L 262.90625 185.160156 C 262.90625 186.453125 263.953125 187.5 265.246094 187.5 C 266.539062 187.5 267.585938 186.453125 267.585938 185.160156 L 267.585938 172.839844 L 274.089844 175.355469 L 274.089844 187.492188 C 274.089844 187.503906 274.089844 187.511719 274.089844 187.523438 C 274.175781 193.824219 288.15625 195.507812 296.40625 195.507812 C 304.65625 195.507812 318.648438 193.824219 318.734375 187.523438 C 318.734375 187.511719 318.734375 187.503906 318.734375 187.492188 L 318.734375 175.355469 L 339.640625 167.265625 C 340.539062 166.917969 341.132812 166.050781 341.132812 165.082031 C 341.132812 164.117188 340.539062 163.25 339.640625 162.902344 Z M 314.054688 182.214844 C 309.21875 180.101562 301.664062 179.417969 296.40625 179.417969 C 291.152344 179.417969 283.601562 180.101562 278.769531 182.214844 L 278.769531 170.804688 C 279.578125 169.707031 285.488281 167.28125 296.40625 167.28125 C 307.328125 167.28125 313.246094 169.707031 314.054688 170.804688 Z M 278.917969 187.464844 C 280.136719 186.308594 285.984375 184.097656 296.40625 184.097656 C 306.832031 184.097656 312.6875 186.308594 313.90625 187.464844 C 312.683594 188.621094 306.828125 190.828125 296.40625 190.828125 C 285.988281 190.828125 280.140625 188.621094 278.917969 187.464844 Z M 318.722656 170.34375 C 318.285156 164.242188 304.554688 162.601562 296.40625 162.601562 C 288.261719 162.601562 274.539062 164.242188 274.101562 170.34375 L 260.511719 165.082031 L 296.40625 151.1875 L 332.3125 165.082031 Z M 359.328125 118.238281 L 348.992188 118.238281 C 347.699219 118.238281 346.652344 119.289062 346.652344 120.578125 L 346.652344 135.339844 L 292.09375 135.339844 L 292.09375 128.304688 C 292.09375 126.765625 291.175781 125.394531 289.757812 124.8125 L 286 123.261719 C 285.5 121.707031 284.863281 120.175781 284.101562 118.695312 L 285.671875 114.929688 C 286.246094 113.523438 285.929688 111.917969 284.855469 110.820312 L 278.832031 104.796875 C 277.75 103.734375 276.140625 103.421875 274.726562 104 L 270.972656 105.5625 C 269.492188 104.800781 267.960938 104.167969 266.402344 103.667969 L 264.855469 99.914062 C 264.273438 98.492188 262.902344 97.574219 261.363281 97.574219 L 252.875 97.574219 C 251.335938 97.574219 249.964844 98.492188 249.382812 99.910156 L 247.835938 103.667969 C 246.273438 104.167969 244.742188 104.804688 243.265625 105.5625 L 239.5 103.996094 C 238.097656 103.421875 236.488281 103.734375 235.390625 104.816406 L 229.390625 110.820312 C 228.3125 111.902344 227.988281 113.515625 228.570312 114.941406 L 230.136719 118.695312 C 229.382812 120.164062 228.746094 121.691406 228.242188 123.261719 L 224.488281 124.8125 C 223.070312 125.390625 222.152344 126.761719 222.152344 128.304688 L 222.152344 136.792969 C 222.152344 138.335938 223.070312 139.703125 224.480469 140.28125 L 228.242188 141.832031 C 228.75 143.410156 229.382812 144.9375 230.136719 146.402344 L 228.566406 150.167969 C 227.988281 151.582031 228.3125 153.195312 229.394531 154.277344 L 235.390625 160.273438 C 236.113281 160.996094 237.078125 161.382812 238.0625 161.382812 C 238.546875 161.382812 239.039062 161.289062 239.511719 161.09375 L 241.492188 160.269531 L 241.492188 173.960938 L 237.480469 169.085938 C 235.207031 166.332031 231.109375 165.933594 228.351562 168.203125 C 228.351562 168.203125 228.347656 168.203125 228.347656 168.203125 L 224.503906 171.367188 C 223.171875 172.46875 222.347656 174.023438 222.179688 175.746094 C 222.011719 177.472656 222.523438 179.160156 223.625 180.492188 L 229.765625 187.957031 C 229.78125 187.972656 229.789062 187.992188 229.804688 188.007812 L 235.851562 195.359375 C 235.867188 195.375 235.878906 195.386719 235.894531 195.402344 L 241.492188 202.207031 L 241.492188 245.085938 C 241.492188 246.378906 242.539062 247.425781 243.832031 247.425781 L 359.328125 247.425781 C 366.308594 247.425781 371.988281 241.75 371.996094 234.765625 C 371.996094 234.761719 371.996094 234.761719 371.996094 234.757812 L 371.996094 130.917969 C 371.996094 123.925781 366.316406 118.238281 359.328125 118.238281 Z M 351.332031 122.917969 L 359.328125 122.917969 C 363.734375 122.917969 367.320312 126.507812 367.320312 130.917969 L 367.320312 224.925781 C 365.136719 223.148438 362.355469 222.082031 359.328125 222.082031 L 351.332031 222.082031 Z M 238.277344 156.542969 L 233.125 151.390625 L 234.882812 147.175781 C 235.160156 146.511719 235.113281 145.753906 234.761719 145.128906 C 233.761719 143.347656 232.972656 141.441406 232.410156 139.457031 C 232.214844 138.765625 231.714844 138.203125 231.050781 137.929688 L 226.832031 136.191406 L 226.832031 128.90625 L 231.050781 127.164062 C 231.714844 126.890625 232.214844 126.328125 232.410156 125.636719 C 232.96875 123.660156 233.757812 121.753906 234.761719 119.96875 C 235.113281 119.339844 235.160156 118.585938 234.882812 117.921875 L 233.125 113.703125 L 238.269531 108.550781 L 242.492188 110.3125 C 243.15625 110.589844 243.910156 110.542969 244.539062 110.191406 C 246.34375 109.175781 248.25 108.386719 250.199219 107.84375 C 250.894531 107.648438 251.460938 107.148438 251.734375 106.480469 L 253.480469 102.253906 L 260.757812 102.253906 L 262.5 106.480469 C 262.777344 107.148438 263.34375 107.648438 264.039062 107.84375 C 265.980469 108.382812 267.886719 109.171875 269.699219 110.191406 C 270.328125 110.542969 271.082031 110.589844 271.746094 110.3125 L 275.96875 108.550781 L 281.113281 113.699219 L 279.355469 117.921875 C 279.078125 118.585938 279.125 119.339844 279.476562 119.96875 C 280.496094 121.78125 281.285156 123.683594 281.824219 125.628906 C 282.015625 126.324219 282.519531 126.890625 283.1875 127.164062 L 287.414062 128.910156 L 287.414062 135.339844 L 277.328125 135.339844 C 278.238281 128.839844 275.980469 122.289062 271.097656 117.699219 C 267.132812 113.964844 261.949219 112 256.503906 112.160156 C 251.058594 112.324219 246.003906 114.601562 242.269531 118.570312 C 234.976562 126.316406 234.953125 138.402344 241.96875 146.191406 C 241.660156 147.375 241.492188 148.613281 241.492188 149.890625 L 241.492188 155.199219 L 238.273438 156.542969 Z M 256.035156 135.339844 C 251.152344 135.339844 246.824219 137.765625 244.183594 141.472656 C 240.078125 135.507812 240.535156 127.242188 245.675781 121.777344 C 248.554688 118.71875 252.449219 116.964844 256.644531 116.835938 C 260.839844 116.710938 264.832031 118.226562 267.890625 121.105469 C 271.816406 124.796875 273.539062 130.125 272.59375 135.339844 Z M 273.351562 226.808594 L 266.78125 223.5625 L 271.433594 219.734375 Z M 262.820312 220.761719 L 245.675781 199.925781 C 245.648438 199.894531 245.625 199.863281 245.597656 199.832031 L 240.957031 194.191406 L 247.589844 188.734375 L 269.453125 215.304688 Z M 234.90625 186.839844 L 241.539062 181.386719 L 244.613281 185.121094 L 237.980469 190.578125 Z M 226.835938 176.199219 C 226.882812 175.714844 227.113281 175.28125 227.480469 174.980469 L 231.320312 171.820312 C 232.09375 171.183594 233.238281 171.296875 233.871094 172.0625 L 238.566406 177.769531 L 231.933594 183.226562 L 227.234375 177.515625 C 226.933594 177.148438 226.789062 176.679688 226.835938 176.199219 Z M 359.328125 242.746094 L 246.171875 242.746094 L 246.171875 207.894531 L 260.691406 225.542969 C 260.746094 225.609375 260.804688 225.671875 260.867188 225.730469 C 260.898438 225.757812 260.929688 225.785156 260.960938 225.8125 C 260.992188 225.839844 261.023438 225.871094 261.058594 225.894531 C 261.097656 225.925781 261.136719 225.953125 261.175781 225.980469 C 261.207031 226 261.234375 226.019531 261.261719 226.039062 C 261.304688 226.066406 261.351562 226.089844 261.394531 226.113281 C 261.417969 226.125 261.4375 226.140625 261.460938 226.152344 L 275.933594 233.304688 C 276.261719 233.464844 276.617188 233.546875 276.96875 233.546875 C 277.5 233.546875 278.027344 233.363281 278.453125 233.011719 C 279.164062 232.429688 279.46875 231.480469 279.226562 230.59375 L 275.003906 215.011719 C 275.003906 215.007812 275 215 274.996094 214.992188 C 274.980469 214.9375 274.960938 214.882812 274.941406 214.828125 C 274.933594 214.808594 274.929688 214.785156 274.921875 214.765625 C 274.898438 214.707031 274.871094 214.648438 274.839844 214.589844 C 274.835938 214.574219 274.828125 214.5625 274.820312 214.546875 C 274.789062 214.488281 274.753906 214.429688 274.71875 214.371094 C 274.710938 214.359375 274.707031 214.347656 274.699219 214.335938 C 274.660156 214.277344 274.617188 214.21875 274.570312 214.164062 C 274.566406 214.15625 274.558594 214.148438 274.550781 214.140625 L 246.171875 179.648438 L 246.171875 149.890625 C 246.171875 148.671875 246.394531 147.503906 246.800781 146.421875 C 246.804688 146.417969 246.804688 146.410156 246.808594 146.40625 C 248.21875 142.675781 251.824219 140.019531 256.035156 140.019531 L 274.460938 140.019531 C 274.46875 140.019531 274.472656 140.019531 274.480469 140.019531 L 346.652344 140.019531 L 346.652344 224.421875 C 346.652344 225.710938 347.699219 226.761719 348.992188 226.761719 L 359.328125 226.761719 C 363.734375 226.761719 367.316406 230.34375 367.316406 234.753906 C 367.316406 239.160156 363.734375 242.746094 359.328125 242.746094 Z M 337.914062 206.691406 C 337.914062 207.980469 336.867188 209.03125 335.574219 209.03125 L 287.066406 209.03125 C 285.773438 209.03125 284.726562 207.980469 284.726562 206.691406 C 284.726562 205.398438 285.773438 204.351562 287.066406 204.351562 L 335.574219 204.351562 C 336.867188 204.351562 337.914062 205.398438 337.914062 206.691406 Z M 337.914062 217.054688 C 337.914062 218.34375 336.867188 219.390625 335.574219 219.390625 L 291.984375 219.390625 C 290.695312 219.390625 289.644531 218.34375 289.644531 217.054688 C 289.644531 215.761719 290.691406 214.714844 291.984375 214.714844 L 335.574219 214.714844 C 336.867188 214.714844 337.914062 215.761719 337.914062 217.054688 Z M 337.914062 227.414062 C 337.914062 228.707031 336.867188 229.753906 335.574219 229.753906 L 296.109375 229.753906 C 294.816406 229.753906 293.769531 228.707031 293.769531 227.414062 C 293.769531 226.125 294.816406 225.074219 296.109375 225.074219 L 335.574219 225.074219 C 336.867188 225.074219 337.914062 226.125 337.914062 227.414062 Z M 281.332031 206.691406 C 281.332031 207.980469 280.285156 209.03125 278.992188 209.03125 C 277.699219 209.03125 276.648438 207.980469 276.648438 206.691406 C 276.648438 205.398438 277.691406 204.351562 278.984375 204.351562 L 278.992188 204.351562 C 280.285156 204.351562 281.332031 205.398438 281.332031 206.691406 Z M 286.253906 217.054688 C 286.253906 218.34375 285.207031 219.390625 283.914062 219.390625 C 282.621094 219.390625 281.570312 218.34375 281.570312 217.054688 C 281.570312 215.761719 282.613281 214.714844 283.90625 214.714844 L 283.914062 214.714844 C 285.207031 214.714844 286.253906 215.761719 286.253906 217.054688 Z M 289.691406 225.761719 C 290.125 226.199219 290.378906 226.800781 290.378906 227.414062 C 290.378906 227.566406 290.359375 227.722656 290.332031 227.871094 C 290.300781 228.019531 290.253906 228.167969 290.195312 228.3125 C 290.136719 228.453125 290.066406 228.585938 289.980469 228.714844 C 289.898438 228.839844 289.796875 228.960938 289.691406 229.070312 C 289.257812 229.503906 288.652344 229.753906 288.035156 229.753906 C 287.882812 229.753906 287.730469 229.738281 287.578125 229.710938 C 287.429688 229.679688 287.285156 229.632812 287.140625 229.574219 C 287 229.515625 286.867188 229.445312 286.738281 229.363281 C 286.609375 229.273438 286.492188 229.175781 286.382812 229.070312 C 286.273438 228.960938 286.175781 228.839844 286.09375 228.714844 C 286.007812 228.585938 285.933594 228.453125 285.875 228.3125 C 285.816406 228.167969 285.773438 228.019531 285.746094 227.871094 C 285.710938 227.722656 285.699219 227.566406 285.699219 227.414062 C 285.699219 226.800781 285.945312 226.199219 286.382812 225.761719 C 286.925781 225.21875 287.734375 224.96875 288.492188 225.121094 C 288.640625 225.152344 288.792969 225.195312 288.933594 225.253906 C 289.074219 225.3125 289.207031 225.386719 289.335938 225.46875 C 289.464844 225.558594 289.582031 225.652344 289.691406 225.761719 Z M 289.691406 225.761719 " fill-opacity="1" fill-rule="nonzero"/></g></svg>